<svg width="220" height="53" viewBox="0 0 220 53" fill="none" xmlns="http://www.w3.org/2000/svg">
<rect x="1" y="1" width="218" height="51" rx="25.5" stroke="url(#paint0_linear)" stroke-width="2"/>
<path d="M33.2393 30.696H35.2193C36.3353 30.696 37.2533 30.348 37.9733 29.652C38.6933 28.956 39.0533 27.948 39.0533 26.628C39.0533 25.308 38.6933 24.3 37.9733 23.604C37.2533 22.896 36.3413 22.542 35.2373 22.542H33.2393V30.696ZM35.3093 33H30.7553V20.238H35.3273C37.1873 20.238 38.6993 20.808 39.8633 21.948C41.0393 23.088 41.6273 24.648 41.6273 26.628C41.6273 28.596 41.0393 30.15 39.8633 31.29C38.6873 32.43 37.1693 33 35.3093 33ZM46.0294 30.426C46.4734 30.87 47.0074 31.092 47.6314 31.092C48.2554 31.092 48.7834 30.87 49.2154 30.426C49.6594 29.982 49.8814 29.364 49.8814 28.572C49.8814 27.78 49.6594 27.162 49.2154 26.718C48.7834 26.274 48.2554 26.052 47.6314 26.052C47.0074 26.052 46.4734 26.274 46.0294 26.718C45.5974 27.162 45.3814 27.78 45.3814 28.572C45.3814 29.364 45.5974 29.982 46.0294 30.426ZM44.3014 25.206C45.1894 24.318 46.2994 23.874 47.6314 23.874C48.9634 23.874 50.0674 24.318 50.9434 25.206C51.8314 26.094 52.2754 27.216 52.2754 28.572C52.2754 29.928 51.8314 31.05 50.9434 31.938C50.0674 32.826 48.9634 33.27 47.6314 33.27C46.2994 33.27 45.1894 32.826 44.3014 31.938C43.4254 31.05 42.9874 29.928 42.9874 28.572C42.9874 27.216 43.4254 26.094 44.3014 25.206ZM58.9586 24.144H61.4786L63.3866 29.85L65.0246 24.144H67.4006L64.6286 33H62.2346L60.1646 26.952L58.1306 33H55.7006L52.8746 24.144H55.3946L57.0326 29.832L58.9586 24.144ZM71.2896 27.906V33H68.8956V24.144H71.2176V25.242C71.4696 24.81 71.8296 24.48 72.2976 24.252C72.7656 24.024 73.2576 23.91 73.7736 23.91C74.8176 23.91 75.6096 24.24 76.1496 24.9C76.7016 25.548 76.9776 26.388 76.9776 27.42V33H74.5836V27.834C74.5836 27.306 74.4456 26.88 74.1696 26.556C73.9056 26.232 73.4976 26.07 72.9456 26.07C72.4416 26.07 72.0396 26.244 71.7396 26.592C71.4396 26.94 71.2896 27.378 71.2896 27.906ZM81.8013 33H79.4073V19.968H81.8013V33ZM86.7404 30.426C87.1844 30.87 87.7184 31.092 88.3424 31.092C88.9664 31.092 89.4944 30.87 89.9264 30.426C90.3704 29.982 90.5924 29.364 90.5924 28.572C90.5924 27.78 90.3704 27.162 89.9264 26.718C89.4944 26.274 88.9664 26.052 88.3424 26.052C87.7184 26.052 87.1844 26.274 86.7404 26.718C86.3084 27.162 86.0924 27.78 86.0924 28.572C86.0924 29.364 86.3084 29.982 86.7404 30.426ZM85.0124 25.206C85.9004 24.318 87.0104 23.874 88.3424 23.874C89.6744 23.874 90.7784 24.318 91.6544 25.206C92.5424 26.094 92.9864 27.216 92.9864 28.572C92.9864 29.928 92.5424 31.05 91.6544 31.938C90.7784 32.826 89.6744 33.27 88.3424 33.27C87.0104 33.27 85.9004 32.826 85.0124 31.938C84.1364 31.05 83.6984 29.928 83.6984 28.572C83.6984 27.216 84.1364 26.094 85.0124 25.206ZM94.3361 30.588C94.3361 29.832 94.5821 29.226 95.0741 28.77C95.5661 28.314 96.2021 28.026 96.9821 27.906L99.1601 27.582C99.6041 27.522 99.8261 27.312 99.8261 26.952C99.8261 26.616 99.6941 26.34 99.4301 26.124C99.1781 25.908 98.8121 25.8 98.3321 25.8C97.8281 25.8 97.4261 25.938 97.1261 26.214C96.8381 26.49 96.6761 26.832 96.6401 27.24L94.5161 26.79C94.6001 26.022 94.9781 25.344 95.6501 24.756C96.3221 24.168 97.2101 23.874 98.3141 23.874C99.6341 23.874 100.606 24.192 101.23 24.828C101.854 25.452 102.166 26.256 102.166 27.24V31.596C102.166 32.124 102.202 32.592 102.274 33H100.078C100.018 32.736 99.9881 32.382 99.9881 31.938C99.4241 32.814 98.5541 33.252 97.3781 33.252C96.4661 33.252 95.7281 32.988 95.1641 32.46C94.6121 31.932 94.3361 31.308 94.3361 30.588ZM97.8821 31.47C98.4461 31.47 98.9081 31.314 99.2681 31.002C99.6401 30.678 99.8261 30.15 99.8261 29.418V29.022L97.8281 29.328C97.0961 29.436 96.7301 29.808 96.7301 30.444C96.7301 30.732 96.8321 30.978 97.0361 31.182C97.2401 31.374 97.5221 31.47 97.8821 31.47ZM112.986 19.968V31.398C112.986 31.986 113.01 32.52 113.058 33H110.772C110.712 32.7 110.682 32.358 110.682 31.974C110.478 32.346 110.154 32.646 109.71 32.874C109.278 33.102 108.774 33.216 108.198 33.216C106.938 33.216 105.9 32.778 105.084 31.902C104.28 31.014 103.878 29.898 103.878 28.554C103.878 27.246 104.274 26.148 105.066 25.26C105.87 24.372 106.89 23.928 108.126 23.928C109.398 23.928 110.232 24.294 110.628 25.026V19.968H112.986ZM106.29 28.554C106.29 29.334 106.494 29.952 106.902 30.408C107.31 30.852 107.838 31.074 108.486 31.074C109.122 31.074 109.644 30.846 110.052 30.39C110.46 29.934 110.664 29.316 110.664 28.536C110.664 27.768 110.46 27.168 110.052 26.736C109.644 26.292 109.122 26.07 108.486 26.07C107.85 26.07 107.322 26.292 106.902 26.736C106.494 27.18 106.29 27.786 106.29 28.554ZM131.1 33H128.49L122.694 23.946V33H120.21V20.238H123.306L128.616 28.68V20.238H131.1V33ZM136.152 30.426C136.596 30.87 137.13 31.092 137.754 31.092C138.378 31.092 138.906 30.87 139.338 30.426C139.782 29.982 140.004 29.364 140.004 28.572C140.004 27.78 139.782 27.162 139.338 26.718C138.906 26.274 138.378 26.052 137.754 26.052C137.13 26.052 136.596 26.274 136.152 26.718C135.72 27.162 135.504 27.78 135.504 28.572C135.504 29.364 135.72 29.982 136.152 30.426ZM134.424 25.206C135.312 24.318 136.422 23.874 137.754 23.874C139.086 23.874 140.19 24.318 141.066 25.206C141.954 26.094 142.398 27.216 142.398 28.572C142.398 29.928 141.954 31.05 141.066 31.938C140.19 32.826 139.086 33.27 137.754 33.27C136.422 33.27 135.312 32.826 134.424 31.938C133.548 31.05 133.11 29.928 133.11 28.572C133.11 27.216 133.548 26.094 134.424 25.206ZM149.082 24.144H151.602L153.51 29.85L155.148 24.144H157.524L154.752 33H152.358L150.288 26.952L148.254 33H145.824L142.998 24.144H145.518L147.156 29.832L149.082 24.144Z" fill="white"/>
<path d="M184.785 13.381C184.552 13.1508 184.242 12.8439 183.933 12.537V12.1534H183.623C183.545 12.1534 183.468 12.0767 183.391 12H171V38.0847H172.316V41H194V13.381H184.785ZM186.178 16.9101L188.347 19.0582H183.933V14.6852L186.178 16.9101ZM172.549 13.5344H182.384V20.5926H189.586V36.5503H172.549V13.5344ZM192.451 39.4656H173.865V38.0847H191.135V19.672C191.057 19.5952 190.98 19.5185 190.902 19.4418V19.0582H190.593C188.966 17.4471 187.727 16.2196 186.333 14.8386H192.451V39.4656Z" fill="url(#paint1_linear)"/>
<path d="M187.185 22.7407H174.717V24.2751H187.185V22.7407Z" fill="url(#paint2_linear)"/>
<path d="M187.418 26.5767H174.949V28.1111H187.418V26.5767Z" fill="url(#paint3_linear)"/>
<path d="M187.418 30.4127H174.949V31.9471H187.418V30.4127Z" fill="url(#paint4_linear)"/>
<defs>
<linearGradient id="paint0_linear" x1="-719.028" y1="-187.828" x2="-676.219" y2="164.617" gradientUnits="userSpaceOnUse">
<stop stop-color="#FF453D"/>
<stop offset="0.255208" stop-color="#FF9304"/>
<stop offset="0.796875" stop-color="#FF483B"/>
<stop offset="0.9999" stop-color="#FF7E13"/>
<stop offset="1" stop-color="#FF9800"/>
</linearGradient>
<linearGradient id="paint1_linear" x1="154.374" y1="38.8004" x2="207.41" y2="15.1216" gradientUnits="userSpaceOnUse">
<stop stop-color="#FD453D"/>
<stop offset="0.1" stop-color="#FD4A39"/>
<stop offset="0.23" stop-color="#FD5A2E"/>
<stop offset="0.34" stop-color="#FD6E1F"/>
<stop offset="0.38" stop-color="#FD6625"/>
<stop offset="0.49" stop-color="#FD5531"/>
<stop offset="0.6" stop-color="#FD4B39"/>
<stop offset="0.75" stop-color="#FC473B"/>
<stop offset="1" stop-color="#FD9600"/>
</linearGradient>
<linearGradient id="paint2_linear" x1="153.017" y1="35.7611" x2="206.053" y2="12.0823" gradientUnits="userSpaceOnUse">
<stop stop-color="#FD453D"/>
<stop offset="0.1" stop-color="#FD4A39"/>
<stop offset="0.23" stop-color="#FD5A2E"/>
<stop offset="0.34" stop-color="#FD6E1F"/>
<stop offset="0.38" stop-color="#FD6625"/>
<stop offset="0.49" stop-color="#FD5531"/>
<stop offset="0.6" stop-color="#FD4B39"/>
<stop offset="0.75" stop-color="#FC473B"/>
<stop offset="1" stop-color="#FD9600"/>
</linearGradient>
<linearGradient id="paint3_linear" x1="154.478" y1="39.0329" x2="207.514" y2="15.3542" gradientUnits="userSpaceOnUse">
<stop stop-color="#FD453D"/>
<stop offset="0.1" stop-color="#FD4A39"/>
<stop offset="0.23" stop-color="#FD5A2E"/>
<stop offset="0.34" stop-color="#FD6E1F"/>
<stop offset="0.38" stop-color="#FD6625"/>
<stop offset="0.49" stop-color="#FD5531"/>
<stop offset="0.6" stop-color="#FD4B39"/>
<stop offset="0.75" stop-color="#FC473B"/>
<stop offset="1" stop-color="#FD9600"/>
</linearGradient>
<linearGradient id="paint4_linear" x1="155.911" y1="42.2412" x2="208.946" y2="18.5625" gradientUnits="userSpaceOnUse">
<stop stop-color="#FD453D"/>
<stop offset="0.1" stop-color="#FD4A39"/>
<stop offset="0.23" stop-color="#FD5A2E"/>
<stop offset="0.34" stop-color="#FD6E1F"/>
<stop offset="0.38" stop-color="#FD6625"/>
<stop offset="0.49" stop-color="#FD5531"/>
<stop offset="0.6" stop-color="#FD4B39"/>
<stop offset="0.75" stop-color="#FC473B"/>
<stop offset="1" stop-color="#FD9600"/>
</linearGradient>
</defs>
</svg>
